<?xml version="1.0" encoding="UTF-8" standalone="no"?>
<!DOCTYPE svg PUBLIC "-//W3C//DTD SVG 1.1//EN"
 "http://www.w3.org/Graphics/SVG/1.1/DTD/svg11.dtd">
<!-- Generated by graphviz version 2.48.0 (20210717.1556)
 -->
<!-- Title: main Pages: 1 -->
<svg width="642pt" height="180pt"
 viewBox="0.00 0.00 642.00 180.00" xmlns="http://www.w3.org/2000/svg" xmlns:xlink="http://www.w3.org/1999/xlink">
<g id="graph0" class="graph" transform="scale(1 1) rotate(0) translate(4 176)">
<title>main</title>
<polygon fill="white" stroke="transparent" points="-4,4 -4,-176 638,-176 638,4 -4,4"/>
<!-- Node1 -->
<g id="node1" class="node">
<title>Node1</title>
<g id="a_node1"><a xlink:title="Main function.">
<polygon fill="#bfbfbf" stroke="black" points="0,-76.5 0,-95.5 38,-95.5 38,-76.5 0,-76.5"/>
<text text-anchor="middle" x="19" y="-83.5" font-family="Helvetica,sans-Serif" font-size="10.00">main</text>
</a>
</g>
</g>
<!-- Node2 -->
<g id="node2" class="node">
<title>Node2</title>
<g id="a_node2"><a xlink:href="../../d3/d78/words__alphabetical_8c.html#af1f9b6eb320d872ba0766dc8bd070075" target="_top" xlink:title="Closes file after read or write.">
<polygon fill="white" stroke="black" points="256,-152.5 256,-171.5 312,-171.5 312,-152.5 256,-152.5"/>
<text text-anchor="middle" x="284" y="-159.5" font-family="Helvetica,sans-Serif" font-size="10.00">closeFile</text>
</a>
</g>
</g>
<!-- Node1&#45;&gt;Node2 -->
<g id="edge1" class="edge">
<title>Node1&#45;&gt;Node2</title>
<path fill="none" stroke="midnightblue" d="M26.77,-95.62C35.93,-107.79 53.52,-128.35 74,-138 129.55,-164.18 202.29,-166.32 245.67,-164.71"/>
<polygon fill="midnightblue" stroke="midnightblue" points="245.95,-168.2 255.78,-164.25 245.63,-161.21 245.95,-168.2"/>
</g>
<!-- Node3 -->
<g id="node3" class="node">
<title>Node3</title>
<g id="a_node3"><a xlink:href="../../d3/d78/words__alphabetical_8c.html#a5157a5b4e164f934602fa78413504029" target="_top" xlink:title="Ends program due to an error.">
<polygon fill="white" stroke="black" points="526,-95.5 526,-114.5 634,-114.5 634,-95.5 526,-95.5"/>
<text text-anchor="middle" x="580" y="-102.5" font-family="Helvetica,sans-Serif" font-size="10.00">endProgramAbruptly</text>
</a>
</g>
</g>
<!-- Node1&#45;&gt;Node3 -->
<g id="edge3" class="edge">
<title>Node1&#45;&gt;Node3</title>
<path fill="none" stroke="midnightblue" d="M38.08,-94.09C48.38,-98.26 61.66,-102.89 74,-105 230.97,-131.81 419.41,-120.58 515.65,-111.79"/>
<polygon fill="midnightblue" stroke="midnightblue" points="516.17,-115.25 525.8,-110.84 515.51,-108.28 516.17,-115.25"/>
</g>
<!-- Node4 -->
<g id="node4" class="node">
<title>Node4</title>
<g id="a_node4"><a xlink:href="../../d3/d78/words__alphabetical_8c.html#a840902ada0e956eb01b529be178748cc" target="_top" xlink:title="Frees memory when program is terminating.">
<polygon fill="white" stroke="black" points="94,-76.5 94,-95.5 184,-95.5 184,-76.5 94,-76.5"/>
<text text-anchor="middle" x="139" y="-83.5" font-family="Helvetica,sans-Serif" font-size="10.00">freeTreeMemory</text>
</a>
</g>
</g>
<!-- Node1&#45;&gt;Node4 -->
<g id="edge4" class="edge">
<title>Node1&#45;&gt;Node4</title>
<path fill="none" stroke="midnightblue" d="M38.18,-86C50.44,-86 67.31,-86 83.7,-86"/>
<polygon fill="midnightblue" stroke="midnightblue" points="83.79,-89.5 93.79,-86 83.79,-82.5 83.79,-89.5"/>
</g>
<!-- Node5 -->
<g id="node5" class="node">
<title>Node5</title>
<g id="a_node5"><a xlink:href="../../d3/d78/words__alphabetical_8c.html#a151b2c78ae821d0495faf936a1c2530f" target="_top" xlink:title="Reads words from file to tree and returns pointer to root node.">
<polygon fill="white" stroke="black" points="79,-38.5 79,-57.5 199,-57.5 199,-38.5 79,-38.5"/>
<text text-anchor="middle" x="139" y="-45.5" font-family="Helvetica,sans-Serif" font-size="10.00">readWordsInFileToTree</text>
</a>
</g>
</g>
<!-- Node1&#45;&gt;Node5 -->
<g id="edge5" class="edge">
<title>Node1&#45;&gt;Node5</title>
<path fill="none" stroke="midnightblue" d="M38.42,-79.26C48.82,-75.52 62.09,-70.86 74,-67 80.67,-64.84 87.76,-62.64 94.69,-60.54"/>
<polygon fill="midnightblue" stroke="midnightblue" points="96.11,-63.77 104.69,-57.55 94.1,-57.06 96.11,-63.77"/>
</g>
<!-- Node9 -->
<g id="node9" class="node">
<title>Node9</title>
<g id="a_node9"><a xlink:href="../../d3/d78/words__alphabetical_8c.html#a22516c70583c9fa78e4edffb063836cc" target="_top" xlink:title="Writes contents of tree to another file alphabetically.">
<polygon fill="white" stroke="black" points="74,-0.5 74,-19.5 204,-19.5 204,-0.5 74,-0.5"/>
<text text-anchor="middle" x="139" y="-7.5" font-family="Helvetica,sans-Serif" font-size="10.00">writeContentOfTreeToFile</text>
</a>
</g>
</g>
<!-- Node1&#45;&gt;Node9 -->
<g id="edge11" class="edge">
<title>Node1&#45;&gt;Node9</title>
<path fill="none" stroke="midnightblue" d="M26.53,-76.46C35.7,-63.79 53.55,-41.55 74,-29 77.4,-26.91 81.05,-25.04 84.81,-23.37"/>
<polygon fill="midnightblue" stroke="midnightblue" points="86.32,-26.53 94.33,-19.6 83.75,-20.02 86.32,-26.53"/>
</g>
<!-- Node2&#45;&gt;Node3 -->
<g id="edge2" class="edge">
<title>Node2&#45;&gt;Node3</title>
<path fill="none" stroke="midnightblue" d="M312.22,-160.88C351.84,-158.78 427.46,-153.03 490,-138 509.82,-133.24 531.27,-125.37 548.15,-118.51"/>
<polygon fill="midnightblue" stroke="midnightblue" points="549.62,-121.69 557.51,-114.62 546.93,-115.23 549.62,-121.69"/>
</g>
<!-- Node6 -->
<g id="node6" class="node">
<title>Node6</title>
<g id="a_node6"><a xlink:href="../../d3/d78/words__alphabetical_8c.html#a0ac11529daf94e98f7114a6e938679a9" target="_top" xlink:title="Adds word (node) to the correct position in tree and returns pointer to root node.">
<polygon fill="white" stroke="black" points="240,-38.5 240,-57.5 328,-57.5 328,-38.5 240,-38.5"/>
<text text-anchor="middle" x="284" y="-45.5" font-family="Helvetica,sans-Serif" font-size="10.00">addWordToTree</text>
</a>
</g>
</g>
<!-- Node5&#45;&gt;Node6 -->
<g id="edge6" class="edge">
<title>Node5&#45;&gt;Node6</title>
<path fill="none" stroke="midnightblue" d="M199.4,-48C209.43,-48 219.78,-48 229.63,-48"/>
<polygon fill="midnightblue" stroke="midnightblue" points="229.7,-51.5 239.7,-48 229.7,-44.5 229.7,-51.5"/>
</g>
<!-- Node7 -->
<g id="node7" class="node">
<title>Node7</title>
<g id="a_node7"><a xlink:href="../../d3/d78/words__alphabetical_8c.html#a1e5ad8401396df36ab585d79f3309fd9" target="_top" xlink:title="Reserves memory for new node and returns pointer to node.">
<polygon fill="white" stroke="black" points="364,-76.5 364,-95.5 490,-95.5 490,-76.5 364,-76.5"/>
<text text-anchor="middle" x="427" y="-83.5" font-family="Helvetica,sans-Serif" font-size="10.00">allocateMemoryForNode</text>
</a>
</g>
</g>
<!-- Node6&#45;&gt;Node7 -->
<g id="edge7" class="edge">
<title>Node6&#45;&gt;Node7</title>
<path fill="none" stroke="midnightblue" d="M320.58,-57.59C338.78,-62.49 361.14,-68.52 380.57,-73.76"/>
<polygon fill="midnightblue" stroke="midnightblue" points="379.86,-77.19 390.43,-76.41 381.69,-70.43 379.86,-77.19"/>
</g>
<!-- Node8 -->
<g id="node8" class="node">
<title>Node8</title>
<g id="a_node8"><a xlink:href="../../d3/d78/words__alphabetical_8c.html#a9e3cab68cf6557024f0073f674a307a1" target="_top" xlink:title="Stores a word in memory and returns pointer to word.">
<polygon fill="white" stroke="black" points="379,-38.5 379,-57.5 475,-57.5 475,-38.5 379,-38.5"/>
<text text-anchor="middle" x="427" y="-45.5" font-family="Helvetica,sans-Serif" font-size="10.00">getPointerToWord</text>
</a>
</g>
</g>
<!-- Node6&#45;&gt;Node8 -->
<g id="edge9" class="edge">
<title>Node6&#45;&gt;Node8</title>
<path fill="none" stroke="midnightblue" d="M328.07,-48C340.85,-48 355.05,-48 368.59,-48"/>
<polygon fill="midnightblue" stroke="midnightblue" points="368.77,-51.5 378.77,-48 368.77,-44.5 368.77,-51.5"/>
</g>
<!-- Node7&#45;&gt;Node3 -->
<g id="edge8" class="edge">
<title>Node7&#45;&gt;Node3</title>
<path fill="none" stroke="midnightblue" d="M490.29,-93.84C498.72,-94.9 507.38,-95.99 515.83,-97.05"/>
<polygon fill="midnightblue" stroke="midnightblue" points="515.64,-100.56 526,-98.33 516.51,-93.61 515.64,-100.56"/>
</g>
<!-- Node8&#45;&gt;Node3 -->
<g id="edge10" class="edge">
<title>Node8&#45;&gt;Node3</title>
<path fill="none" stroke="midnightblue" d="M461.36,-57.51C470.69,-60.37 480.8,-63.64 490,-67 509.92,-74.28 531.83,-83.62 548.93,-91.22"/>
<polygon fill="midnightblue" stroke="midnightblue" points="547.83,-94.56 558.39,-95.46 550.7,-88.18 547.83,-94.56"/>
</g>
</g>
</svg>
