<?xml version="1.0" encoding="UTF-8" standalone="no"?>
<!DOCTYPE svg PUBLIC "-//W3C//DTD SVG 1.1//EN"
 "http://www.w3.org/Graphics/SVG/1.1/DTD/svg11.dtd">
<!-- Generated by graphviz version 2.48.0 (20210717.1556)
 -->
<!-- Title: data_structures/binary_trees/words_alphabetical.c Pages: 1 -->
<svg width="407pt" height="95pt"
 viewBox="0.00 0.00 407.00 95.00" xmlns="http://www.w3.org/2000/svg" xmlns:xlink="http://www.w3.org/1999/xlink">
<g id="graph0" class="graph" transform="scale(1 1) rotate(0) translate(4 91)">
<title>data_structures/binary_trees/words_alphabetical.c</title>
<polygon fill="white" stroke="transparent" points="-4,4 -4,-91 403,-91 403,4 -4,4"/>
<!-- Node1 -->
<g id="node1" class="node">
<title>Node1</title>
<g id="a_node1"><a xlink:title="Printing the words contained in a file named file.txt in alphabetical order and also their frequencie...">
<polygon fill="#bfbfbf" stroke="black" points="127.5,-56.5 127.5,-86.5 267.5,-86.5 267.5,-56.5 127.5,-56.5"/>
<text text-anchor="start" x="135.5" y="-74.5" font-family="Helvetica,sans-Serif" font-size="10.00">data_structures/binary</text>
<text text-anchor="middle" x="197.5" y="-63.5" font-family="Helvetica,sans-Serif" font-size="10.00">_trees/words_alphabetical.c</text>
</a>
</g>
</g>
<!-- Node2 -->
<g id="node2" class="node">
<title>Node2</title>
<g id="a_node2"><a xlink:title=" ">
<polygon fill="white" stroke="#bfbfbf" points="0,-0.5 0,-19.5 49,-19.5 49,-0.5 0,-0.5"/>
<text text-anchor="middle" x="24.5" y="-7.5" font-family="Helvetica,sans-Serif" font-size="10.00">ctype.h</text>
</a>
</g>
</g>
<!-- Node1&#45;&gt;Node2 -->
<g id="edge1" class="edge">
<title>Node1&#45;&gt;Node2</title>
<path fill="none" stroke="midnightblue" d="M156.5,-56.4C126.78,-46.18 87.04,-32.51 58.95,-22.85"/>
<polygon fill="midnightblue" stroke="midnightblue" points="59.76,-19.43 49.17,-19.48 57.49,-26.05 59.76,-19.43"/>
</g>
<!-- Node3 -->
<g id="node3" class="node">
<title>Node3</title>
<g id="a_node3"><a xlink:title=" ">
<polygon fill="white" stroke="#bfbfbf" points="67,-0.5 67,-19.5 124,-19.5 124,-0.5 67,-0.5"/>
<text text-anchor="middle" x="95.5" y="-7.5" font-family="Helvetica,sans-Serif" font-size="10.00">stdbool.h</text>
</a>
</g>
</g>
<!-- Node1&#45;&gt;Node3 -->
<g id="edge2" class="edge">
<title>Node1&#45;&gt;Node3</title>
<path fill="none" stroke="midnightblue" d="M173.33,-56.4C156.98,-46.86 135.49,-34.32 119.23,-24.84"/>
<polygon fill="midnightblue" stroke="midnightblue" points="120.74,-21.67 110.34,-19.66 117.22,-27.72 120.74,-21.67"/>
</g>
<!-- Node4 -->
<g id="node4" class="node">
<title>Node4</title>
<g id="a_node4"><a xlink:title=" ">
<polygon fill="white" stroke="#bfbfbf" points="142.5,-0.5 142.5,-19.5 188.5,-19.5 188.5,-0.5 142.5,-0.5"/>
<text text-anchor="middle" x="165.5" y="-7.5" font-family="Helvetica,sans-Serif" font-size="10.00">stdio.h</text>
</a>
</g>
</g>
<!-- Node1&#45;&gt;Node4 -->
<g id="edge3" class="edge">
<title>Node1&#45;&gt;Node4</title>
<path fill="none" stroke="midnightblue" d="M189.92,-56.4C185.46,-48.11 179.78,-37.55 175.02,-28.71"/>
<polygon fill="midnightblue" stroke="midnightblue" points="177.98,-26.81 170.16,-19.66 171.81,-30.12 177.98,-26.81"/>
</g>
<!-- Node5 -->
<g id="node5" class="node">
<title>Node5</title>
<g id="a_node5"><a xlink:title=" ">
<polygon fill="white" stroke="#bfbfbf" points="206.5,-0.5 206.5,-19.5 254.5,-19.5 254.5,-0.5 206.5,-0.5"/>
<text text-anchor="middle" x="230.5" y="-7.5" font-family="Helvetica,sans-Serif" font-size="10.00">stdlib.h</text>
</a>
</g>
</g>
<!-- Node1&#45;&gt;Node5 -->
<g id="edge4" class="edge">
<title>Node1&#45;&gt;Node5</title>
<path fill="none" stroke="midnightblue" d="M205.32,-56.4C209.97,-48.02 215.9,-37.33 220.84,-28.42"/>
<polygon fill="midnightblue" stroke="midnightblue" points="223.91,-30.1 225.7,-19.66 217.79,-26.71 223.91,-30.1"/>
</g>
<!-- Node6 -->
<g id="node6" class="node">
<title>Node6</title>
<g id="a_node6"><a xlink:title=" ">
<polygon fill="white" stroke="#bfbfbf" points="273,-0.5 273,-19.5 322,-19.5 322,-0.5 273,-0.5"/>
<text text-anchor="middle" x="297.5" y="-7.5" font-family="Helvetica,sans-Serif" font-size="10.00">string.h</text>
</a>
</g>
</g>
<!-- Node1&#45;&gt;Node6 -->
<g id="edge5" class="edge">
<title>Node1&#45;&gt;Node6</title>
<path fill="none" stroke="midnightblue" d="M221.2,-56.4C237.23,-46.86 258.3,-34.32 274.24,-24.84"/>
<polygon fill="midnightblue" stroke="midnightblue" points="276.14,-27.78 282.95,-19.66 272.57,-21.76 276.14,-27.78"/>
</g>
<!-- Node7 -->
<g id="node7" class="node">
<title>Node7</title>
<g id="a_node7"><a xlink:title=" ">
<polygon fill="white" stroke="#bfbfbf" points="340,-0.5 340,-19.5 399,-19.5 399,-0.5 340,-0.5"/>
<text text-anchor="middle" x="369.5" y="-7.5" font-family="Helvetica,sans-Serif" font-size="10.00">inttypes.h</text>
</a>
</g>
</g>
<!-- Node1&#45;&gt;Node7 -->
<g id="edge6" class="edge">
<title>Node1&#45;&gt;Node7</title>
<path fill="none" stroke="midnightblue" d="M238.26,-56.4C267.72,-46.21 307.09,-32.59 335,-22.93"/>
<polygon fill="midnightblue" stroke="midnightblue" points="336.42,-26.15 344.72,-19.57 334.13,-19.53 336.42,-26.15"/>
</g>
</g>
</svg>
